<?xml version="1.0" encoding="utf-8"?>
<svg viewBox="285 285 330 330" xmlns="http://www.w3.org/2000/svg" xmlnsBx="https://boxy-svg.com">
  <rect style="fill: rgb(48, 146, 147);" x="285" y="285" width="330" height="330" rx="20" ry="20"/>
  <circle style="fill: rgb(255, 255, 255);" cx="198.766" cy="95.831" r="21.038" transform="matrix(1.088304, -0.212162, 0.211598, 1.091226, 122.011337, 362.50885)"/>
  <rect x="353.904" y="445.399" width="14.013" height="9.054" style="fill: rgb(255, 255, 255);"/>
  <path style="fill: rgb(255, 255, 255);" d="M 234.58 335.503 H 247.333 A 19.792 19.792 0 0 1 267.125 355.295 V 396.095 A 8.461 8.461 0 0 1 258.664 404.556 H 227.302 A 8.461 8.461 0 0 1 218.841 396.095 V 351.242 A 15.739 15.739 0 0 1 234.58 335.503 Z" transform="matrix(0.994493, 0.104806, -0.10425, 0.994551, 159.273376, 91.624214)" bxShape="rect 218.841 335.503 48.284 69.053 15.739 19.792 8.461 8.461 1@75a47027"/>
  <path style="fill: rgb(255, 255, 255);" transform="matrix(0.875109, -0.483925, 0.471151, 0.882173, 143.836288, 458.492493)" d="M 176.593 147.286 H 183.551 A 3.642 3.642 0 0 1 187.193 150.928 V 181.85 A 6.411 6.411 0 0 1 180.782 188.261 H 176.593 A 3.642 3.642 0 0 1 172.951 184.619 V 150.928 A 3.642 3.642 0 0 1 176.593 147.286 Z" bxShape="rect 172.951 147.286 14.242 40.975 3.642 3.642 6.411 3.642 1@6e8affd8"/>
  <path style="fill: rgb(255, 255, 255);" transform="matrix(0.952385, 0.304899, -0.315151, 0.949103, 264.691467, 333.067444)" d="M 176.532 147.341 H 180.796 A 6.332 6.332 0 0 1 187.128 153.673 V 182.79 A 5.542 5.542 0 0 1 181.586 188.332 H 178.365 A 5.475 5.475 0 0 1 172.89 182.857 V 150.983 A 3.642 3.642 0 0 1 176.532 147.341 Z" bxShape="rect 172.89 147.341 14.238 40.991 3.642 6.332 5.542 5.475 1@efb100be"/>
  <path style="fill: rgb(255, 255, 255);" transform="matrix(0.992506, 0.122193, -0.121548, 0.992586, 279.65094, 332.961823)" d="M 90.69 166.912 H 97.839 A 3.542 3.542 0 0 1 101.381 170.454 V 223.092 A 5.509 5.509 0 0 1 95.872 228.601 H 92.657 A 5.509 5.509 0 0 1 87.148 223.092 V 170.454 A 3.542 3.542 0 0 1 90.69 166.912 Z" bxShape="rect 87.148 166.912 14.233 61.689 3.542 3.542 5.509 5.509 1@10b3d703"/>
  <path style="fill: rgb(255, 255, 255);" transform="matrix(0.421648, 0.90676, -0.898268, 0.439909, 527.709656, 295.787079)" d="M 92.797 166.55 H 96.045 A 5.558 5.558 0 0 1 101.603 172.108 V 222.596 A 5.509 5.509 0 0 1 96.094 228.105 H 89.323 A 1.985 1.985 0 0 1 87.338 226.12 V 172.009 A 5.459 5.459 0 0 1 92.797 166.55 Z" bxShape="rect 87.338 166.55 14.265 61.555 5.459 5.558 5.509 1.985 1@2960d054"/>
  <rect style="fill: rgb(255, 255, 255);" transform="matrix(0.421686, 0.906742, -0.905874, 0.423553, 528.791931, -116.46447)" x="460.127" y="239.035" width="18.881" height="93.42" rx="7.29" ry="7.29"/>
  <path style="fill: rgb(255, 255, 255);" transform="matrix(0.926834, -0.375471, 0.373741, 0.927535, -145.78479, 406.543549)" d="M 583.345 203.886 H 608.098 A 20.258 20.258 0 0 1 628.356 224.144 V 308.839 A 29.374 29.374 0 0 1 598.982 338.213 H 583.345 A 20.258 20.258 0 0 1 563.087 317.955 V 224.144 A 20.258 20.258 0 0 1 583.345 203.886 Z" bxShape="rect 563.087 203.886 65.269 134.327 20.258 20.258 29.374 20.258 1@16406ad2"/>
  <circle style="fill: rgb(255, 255, 255);" cx="348.702" cy="193.812" r="26.883" transform="matrix(1.107163, 0.05818, -0.058024, 1.110139, 85.438087, 107.977028)"/>
  <rect x="584.619" y="216.241" width="18.152" height="45.896" style="fill: rgb(255, 255, 255);" transform="matrix(0.926834, -0.375471, 0.373741, 0.927535, -164.558228, 369.759369)"/>
  <path style="fill: rgb(255, 255, 255);" transform="matrix(0.992506, 0.122193, -0.121548, 0.992586, -126.217583, 47.244286)" d="M 678.606 332.37 H 699.801 V 433.922 A 8.495 8.495 0 0 1 691.306 442.417 H 687.101 A 8.495 8.495 0 0 1 678.606 433.922 V 332.37 Z" bxShape="rect 678.606 332.37 21.195 110.047 0 0 8.495 8.495 1@4ad8c4d3"/>
  <rect style="fill: rgb(255, 255, 255);" x="495.082" y="550.145" width="70.638" height="21.25" rx="8.495" ry="8.495"/>
  <path style="fill: rgb(255, 255, 255);" d="M 310.656 328.217 H 323.409 A 19.792 19.792 0 0 1 343.201 348.009 V 388.809 A 8.461 8.461 0 0 1 334.74 397.27 H 303.378 A 8.461 8.461 0 0 1 294.917 388.809 V 343.956 A 15.739 15.739 0 0 1 310.656 328.217 Z" transform="matrix(0.994493, -0.104807, 0.104252, 0.994551, 10.302608, 159.933792)" bxShape="rect 294.917 328.217 48.284 69.053 15.739 19.792 8.461 8.461 1@03afce48"/>
  <rect x="481.005" y="551.19" width="0.82" height="0.822" style="fill: rgb(255, 255, 255);"/>
  <path style="fill: rgb(255, 255, 255);" transform="matrix(0.965752, -0.259468, 0.258171, 0.9661, -143.003799, 329.576813)" d="M 583.236 203.923 H 607.978 A 20.258 20.258 0 0 1 628.236 224.181 V 308.902 A 29.374 29.374 0 0 1 598.862 338.276 H 583.236 A 20.258 20.258 0 0 1 562.978 318.018 V 224.181 A 20.258 20.258 0 0 1 583.236 203.923 Z" bxShape="rect 562.978 203.923 65.258 134.353 20.258 20.258 29.374 20.258 1@925684b3"/>
  <path d="M 478.8 319.65 C 480.567 312.562 486.737 305.253 500.913 307.373 C 509.623 308.674 515.724 326.368 517.12 332.398 C 519.344 342.031 523.22 349.02 527.674 352.6 C 533.593 357.352 532.981 352.942 534.139 355.231 C 537.127 361.132 523.593 360.258 520.886 358.9 C 500.129 348.494 507.013 325.364 480.938 325.364" style="stroke: rgba(0, 0, 0, 0); fill: rgb(255, 255, 255);"/>
  <path d="M 461.033 446.589 C 468.327 441.104 477.058 438.255 479.57 433.58 C 483.405 426.428 492.253 398.64 492.253 398.64" style="fill: none; stroke: rgb(48, 145, 147); stroke-width: 2px;"/>
  <path d="M 449.333 425.41 C 455.603 420.695 464.903 423.07 467.063 419.052 C 470.359 412.904 471.56 401.296 471.56 401.296" style="fill: none; stroke: rgb(48, 146, 147);"/>
  <rect x="303" y="583.213" width="291" height="0.788" style="stroke-miterlimit: 8; fill: rgb(255, 255, 255);" rx="0.354" ry="0.354"/>
</svg>